<svg id="Layer_1" data-name="Layer 1" xmlns="http://www.w3.org/2000/svg" viewBox="0 0 375 812"><defs><style>.cls-1{opacity:0.5;}.cls-2,.cls-3,.cls-4{fill:none;}.cls-2{stroke:#42b54a;}.cls-3{stroke:#4bc6ec;}.cls-4{stroke:#ed3540;}</style></defs><title>SDSF_Mobile_revised</title><g class="cls-1"><polyline class="cls-2" points="200.75 348.94 168.93 367.31 172.92 369.61"/><line class="cls-2" x1="192.8" y1="390.27" x2="153.02" y2="367.31"/><line class="cls-2" x1="232.57" y1="367.31" x2="192.8" y2="390.27"/><line class="cls-2" x1="192.8" y1="390.27" x2="192.8" y2="394.87"/><polyline class="cls-2" points="172.92 369.61 192.8 381.09 224.61 362.72 232.57 367.31 232.57 371.9 192.8 394.87 153.03 371.9 153.03 367.31 192.8 344.35 200.75 348.94 200.75 353.53 172.91 369.61"/></g><g class="cls-1"><line class="cls-3" x1="298.56" y1="83.95" x2="258.78" y2="60.98"/><line class="cls-3" x1="306.51" y1="79.35" x2="298.56" y2="83.95"/><line class="cls-3" x1="298.56" y1="83.95" x2="298.56" y2="88.54"/><polyline class="cls-3" points="322.42 51.8 290.6 70.17 294.58 72.47"/><polyline class="cls-3" points="294.58 72.47 306.51 79.35 306.51 83.95 298.56 88.54 258.79 65.58 258.79 60.98 266.74 56.39 282.65 65.58 314.46 47.21 322.42 51.8 322.42 56.39 294.59 72.46"/></g><g class="cls-1"><line class="cls-3" x1="350.08" y1="448.03" x2="310.31" y2="425.07"/><line class="cls-3" x1="358.03" y1="443.44" x2="350.08" y2="448.03"/><line class="cls-3" x1="350.08" y1="448.03" x2="350.08" y2="452.62"/><polyline class="cls-3" points="373.94 415.88 342.12 434.25 346.1 436.55"/><polyline class="cls-3" points="346.1 436.55 358.03 443.44 358.03 448.03 350.08 452.62 310.31 429.66 310.31 425.07 318.26 420.48 334.17 429.66 365.99 411.29 373.94 415.88 373.94 420.48 346.11 436.55"/></g><g class="cls-1"><line class="cls-4" x1="74.75" y1="77.76" x2="74.75" y2="86.16"/><polyline class="cls-4" points="108.5 73.17 108.5 66.67 86 66.67 86 53.68 74.75 53.68 74.75 66.67 52.25 66.67 52.25 73.17"/><polyline class="cls-4" points="86 77.76 86 73.17 108.5 73.17"/><line class="cls-4" x1="86" y1="86.16" x2="86" y2="77.76"/><line class="cls-4" x1="74.75" y1="86.16" x2="86" y2="86.16"/><polyline class="cls-4" points="52.25 73.17 74.75 73.17 74.75 77.76"/><polyline class="cls-4" points="74.75 77.76 52.25 77.76 52.25 73.17"/><polyline class="cls-4" points="86 77.76 108.5 77.76 108.5 73.17"/><polyline class="cls-4" points="86 86.16 86 90.75 74.75 90.75 74.75 86.16"/></g><g class="cls-1"><line class="cls-3" x1="89.88" y1="265.22" x2="81.92" y2="269.81"/><polyline class="cls-3" points="54.08 258.33 58.06 256.04 42.15 246.85"/><line class="cls-3" x1="34.2" y1="279" x2="26.24" y2="274.4"/><line class="cls-3" x1="81.92" y1="269.81" x2="81.92" y2="274.4"/><line class="cls-3" x1="66.01" y1="260.63" x2="66.01" y2="265.22"/><line class="cls-3" x1="34.2" y1="279" x2="34.2" y2="283.59"/><polyline class="cls-3" points="54.09 258.33 42.15 251.44 42.15 246.85 50.11 242.26 89.88 265.22 89.88 269.81 81.92 274.4 66.02 265.22"/><polyline class="cls-3" points="66.02 265.22 34.2 283.59 26.24 279 26.24 274.4 54.08 258.33"/><polyline class="cls-3" points="81.92 269.81 66.02 260.63 34.2 279"/></g><g class="cls-1"><line class="cls-2" x1="189.12" y1="170.56" x2="169.23" y2="159.07"/><line class="cls-2" x1="169.23" y1="191.22" x2="161.27" y2="186.63"/><line class="cls-2" x1="209" y1="168.26" x2="169.23" y2="191.22"/><line class="cls-2" x1="137.41" y1="172.85" x2="129.46" y2="168.26"/><line class="cls-2" x1="169.23" y1="154.48" x2="169.23" y2="159.07"/><line class="cls-2" x1="169.23" y1="191.22" x2="169.23" y2="195.81"/><line class="cls-2" x1="137.41" y1="172.85" x2="137.41" y2="177.44"/><polyline class="cls-2" points="189.12 170.55 193.09 168.26 169.23 154.48 137.41 172.85"/><polyline class="cls-2" points="169.23 159.07 137.41 177.44 129.46 172.85 129.46 168.26 169.23 145.29 209 168.26 209 172.85 169.23 195.81 161.27 191.22 161.27 186.63 189.12 170.55"/></g><g class="cls-1"><polyline class="cls-4" points="306.35 269.21 302.37 266.9 318.27 257.72"/><line class="cls-4" x1="310.32" y1="280.68" x2="318.27" y2="276.09"/><line class="cls-4" x1="270.55" y1="276.09" x2="278.5" y2="280.68"/><line class="cls-4" x1="310.32" y1="285.27" x2="310.32" y2="280.68"/><line class="cls-4" x1="294.41" y1="276.09" x2="294.41" y2="271.5"/><line class="cls-4" x1="278.5" y1="285.27" x2="278.5" y2="280.68"/><polyline class="cls-4" points="294.41 276.09 278.5 285.27 270.55 280.68 270.55 276.09 282.49 269.2"/><polyline class="cls-4" points="282.48 269.2 270.55 262.31 270.55 257.72 278.5 253.13 294.41 262.31 310.32 253.13 318.27 257.72 318.27 262.31 306.34 269.2"/><polyline class="cls-4" points="306.35 269.21 318.27 276.09 318.27 280.68 310.32 285.27 294.41 276.09"/><polyline class="cls-4" points="278.5 280.68 294.41 271.5 310.32 280.68"/><polyline class="cls-4" points="270.55 257.72 286.46 266.9 282.49 269.2"/></g><g class="cls-1"><polyline class="cls-4" points="73.48 418.82 69.5 416.52 85.41 407.33"/><line class="cls-4" x1="77.45" y1="430.3" x2="85.4" y2="425.71"/><line class="cls-4" x1="37.68" y1="425.71" x2="45.63" y2="430.3"/><line class="cls-4" x1="77.45" y1="434.89" x2="77.45" y2="430.3"/><line class="cls-4" x1="61.54" y1="425.71" x2="61.54" y2="421.11"/><line class="cls-4" x1="45.63" y1="434.89" x2="45.63" y2="430.3"/><polyline class="cls-4" points="61.54 425.7 45.63 434.89 37.68 430.3 37.68 425.7 49.62 418.81"/><polyline class="cls-4" points="49.62 418.82 37.68 411.93 37.68 407.33 45.63 402.74 61.54 411.93 77.45 402.74 85.41 407.33 85.41 411.93 73.47 418.81"/><polyline class="cls-4" points="73.48 418.82 85.41 425.7 85.41 430.3 77.45 434.89 61.54 425.7"/><polyline class="cls-4" points="45.63 430.3 61.54 421.11 77.45 430.3"/><polyline class="cls-4" points="37.68 407.33 53.59 416.52 49.62 418.81"/></g><g class="cls-1"><line class="cls-3" x1="275.63" y1="565.97" x2="235.86" y2="543.01"/><line class="cls-3" x1="283.59" y1="561.38" x2="275.63" y2="565.97"/><line class="cls-3" x1="275.63" y1="565.97" x2="275.63" y2="570.57"/><polyline class="cls-3" points="299.5 533.83 267.68 552.2 271.65 554.49"/><polyline class="cls-3" points="271.65 554.49 283.59 561.38 283.59 565.97 275.63 570.57 235.86 547.6 235.86 543.01 243.81 538.42 259.72 547.6 291.54 529.23 299.5 533.83 299.5 538.42 271.66 554.49"/></g><g class="cls-1"><line class="cls-4" x1="51.83" y1="559.79" x2="51.83" y2="568.18"/><polyline class="cls-4" points="85.58 555.19 85.58 548.7 63.08 548.7 63.08 535.71 51.83 535.71 51.83 548.7 29.33 548.7 29.33 555.19"/><polyline class="cls-4" points="63.08 559.79 63.08 555.19 85.58 555.19"/><line class="cls-4" x1="63.08" y1="568.18" x2="63.08" y2="559.79"/><line class="cls-4" x1="51.83" y1="568.18" x2="63.08" y2="568.18"/><polyline class="cls-4" points="29.33 555.19 51.83 555.19 51.83 559.79"/><polyline class="cls-4" points="51.83 559.79 29.33 559.79 29.33 555.19"/><polyline class="cls-4" points="63.08 559.79 85.58 559.79 85.58 555.19"/><polyline class="cls-4" points="63.08 568.18 63.08 572.77 51.83 572.77 51.83 568.18"/></g><g class="cls-1"><line class="cls-3" x1="66.95" y1="747.25" x2="59" y2="751.84"/><polyline class="cls-3" points="31.16 740.36 35.13 738.06 19.23 728.88"/><line class="cls-3" x1="11.27" y1="761.02" x2="3.32" y2="756.43"/><line class="cls-3" x1="59" y1="751.84" x2="59" y2="756.43"/><line class="cls-3" x1="43.09" y1="742.65" x2="43.09" y2="747.25"/><line class="cls-3" x1="11.27" y1="761.02" x2="11.27" y2="765.62"/><polyline class="cls-3" points="31.16 740.36 19.23 733.47 19.23 728.88 27.18 724.28 66.95 747.25 66.95 751.84 59 756.43 43.09 747.25"/><polyline class="cls-3" points="43.09 747.25 11.27 765.62 3.32 761.02 3.32 756.43 31.16 740.36"/><polyline class="cls-3" points="59 751.84 43.09 742.65 11.27 761.02"/></g><g class="cls-1"><line class="cls-2" x1="166.19" y1="652.58" x2="146.3" y2="641.1"/><line class="cls-2" x1="146.3" y1="673.25" x2="138.35" y2="668.65"/><line class="cls-2" x1="186.08" y1="650.28" x2="146.3" y2="673.25"/><line class="cls-2" x1="114.49" y1="654.88" x2="106.53" y2="650.28"/><line class="cls-2" x1="146.3" y1="636.51" x2="146.3" y2="641.1"/><line class="cls-2" x1="146.3" y1="673.25" x2="146.3" y2="677.84"/><line class="cls-2" x1="114.49" y1="654.88" x2="114.49" y2="659.47"/><polyline class="cls-2" points="166.19 652.58 170.17 650.28 146.3 636.51 114.49 654.88"/><polyline class="cls-2" points="146.3 641.1 114.49 659.47 106.53 654.88 106.53 650.28 146.3 627.32 186.07 650.28 186.07 654.88 146.3 677.84 138.35 673.25 138.35 668.65 166.19 652.58"/></g><g class="cls-1"><polyline class="cls-4" points="283.43 751.24 279.44 748.93 295.35 739.75"/><line class="cls-4" x1="287.39" y1="762.71" x2="295.35" y2="758.12"/><line class="cls-4" x1="247.62" y1="758.12" x2="255.58" y2="762.71"/><line class="cls-4" x1="287.39" y1="767.3" x2="287.39" y2="762.71"/><line class="cls-4" x1="271.49" y1="758.12" x2="271.49" y2="753.52"/><line class="cls-4" x1="255.58" y1="767.3" x2="255.58" y2="762.71"/><polyline class="cls-4" points="271.49 758.12 255.58 767.3 247.62 762.71 247.62 758.12 259.56 751.22"/><polyline class="cls-4" points="259.56 751.23 247.62 744.34 247.62 739.75 255.58 735.15 271.49 744.34 287.39 735.15 295.35 739.75 295.35 744.34 283.42 751.23"/><polyline class="cls-4" points="283.43 751.24 295.35 758.12 295.35 762.71 287.39 767.3 271.49 758.12"/><polyline class="cls-4" points="255.58 762.71 271.49 753.52 287.39 762.71"/><polyline class="cls-4" points="247.62 739.75 263.53 748.93 259.56 751.22"/></g></svg>