<svg id="Layer_1" data-name="Layer 1" xmlns="http://www.w3.org/2000/svg" viewBox="0 0 1518 673.17"><defs><style>.cls-1{opacity:0.5;}.cls-2,.cls-3,.cls-4{fill:none;}.cls-2{stroke:#42b54a;}.cls-3{stroke:#4bc6ec;}.cls-4{stroke:#ed3540;}</style></defs><g class="cls-1"><polyline class="cls-2" points="289.76 500.73 237.02 531.18 243.63 534.99"/><line class="cls-2" x1="276.58" y1="569.24" x2="210.65" y2="531.18"/><line class="cls-2" x1="342.5" y1="531.18" x2="276.58" y2="569.24"/><line class="cls-2" x1="276.58" y1="569.24" x2="276.58" y2="576.85"/><polyline class="cls-2" points="243.63 534.99 276.58 554.01 329.32 523.56 342.5 531.18 342.5 538.79 276.58 576.85 210.65 538.79 210.65 531.18 276.58 493.11 289.76 500.73 289.76 508.34 243.62 534.98"/></g><g class="cls-1"><line class="cls-3" x1="451.88" y1="61.48" x2="385.96" y2="23.41"/><line class="cls-3" x1="465.07" y1="53.86" x2="451.88" y2="61.48"/><line class="cls-3" x1="451.88" y1="61.48" x2="451.88" y2="69.09"/><polyline class="cls-3" points="491.44 8.19 438.7 38.64 445.29 42.45"/><polyline class="cls-3" points="445.29 42.45 465.07 53.86 465.07 61.48 451.88 69.09 385.96 31.03 385.96 23.41 399.14 15.8 425.51 31.03 478.25 0.58 491.44 8.19 491.44 15.8 445.3 42.44"/></g><g class="cls-1"><line class="cls-3" x1="537.28" y1="664.98" x2="471.36" y2="626.91"/><line class="cls-3" x1="550.47" y1="657.36" x2="537.28" y2="664.98"/><line class="cls-3" x1="537.28" y1="664.98" x2="537.28" y2="672.59"/><polyline class="cls-3" points="576.84 611.69 524.1 642.14 530.69 645.95"/><polyline class="cls-3" points="530.69 645.95 550.47 657.36 550.47 664.98 537.28 672.59 471.36 634.53 471.36 626.91 484.54 619.3 510.91 634.53 563.65 604.08 576.84 611.69 576.84 619.3 530.7 645.94"/></g><g class="cls-1"><line class="cls-4" x1="80.91" y1="51.22" x2="80.91" y2="65.14"/><polyline class="cls-4" points="136.85 43.61 136.85 32.84 99.56 32.84 99.56 11.31 80.91 11.31 80.91 32.84 43.62 32.84 43.62 43.61"/><polyline class="cls-4" points="99.56 51.22 99.56 43.61 136.85 43.61"/><line class="cls-4" x1="99.56" y1="65.14" x2="99.56" y2="51.22"/><line class="cls-4" x1="80.91" y1="65.14" x2="99.56" y2="65.14"/><polyline class="cls-4" points="43.62 43.61 80.91 43.61 80.91 51.22"/><polyline class="cls-4" points="80.91 51.22 43.62 51.22 43.62 43.61"/><polyline class="cls-4" points="99.56 51.22 136.85 51.22 136.85 43.61"/><polyline class="cls-4" points="99.56 65.14 99.56 72.75 80.91 72.75 80.91 65.14"/></g><g class="cls-1"><line class="cls-3" x1="105.98" y1="361.95" x2="92.8" y2="369.56"/><polyline class="cls-3" points="46.65 350.53 53.24 346.73 26.87 331.5"/><line class="cls-3" x1="13.69" y1="384.79" x2="0.5" y2="377.18"/><line class="cls-3" x1="92.8" y1="369.56" x2="92.8" y2="377.18"/><line class="cls-3" x1="66.43" y1="354.34" x2="66.43" y2="361.95"/><line class="cls-3" x1="13.69" y1="384.79" x2="13.69" y2="392.4"/><polyline class="cls-3" points="46.66 350.54 26.87 339.11 26.87 331.5 40.05 323.89 105.98 361.95 105.98 369.56 92.8 377.18 66.42 361.95"/><polyline class="cls-3" points="66.42 361.95 13.69 392.4 0.5 384.79 0.5 377.18 46.65 350.53"/><polyline class="cls-3" points="92.8 369.56 66.42 354.34 13.69 384.79"/></g><g class="cls-1"><line class="cls-2" x1="270.48" y1="205.04" x2="237.51" y2="186"/><line class="cls-2" x1="237.51" y1="239.29" x2="224.33" y2="231.68"/><line class="cls-2" x1="303.44" y1="201.23" x2="237.51" y2="239.29"/><line class="cls-2" x1="184.77" y1="208.84" x2="171.58" y2="201.23"/><line class="cls-2" x1="237.51" y1="178.39" x2="237.51" y2="186"/><line class="cls-2" x1="237.51" y1="239.29" x2="237.51" y2="246.9"/><line class="cls-2" x1="184.77" y1="208.84" x2="184.77" y2="216.45"/><polyline class="cls-2" points="270.48 205.03 277.06 201.23 237.51 178.39 184.77 208.84"/><polyline class="cls-2" points="237.51 186 184.77 216.45 171.59 208.84 171.59 201.23 237.51 163.16 303.44 201.23 303.44 208.84 237.51 246.9 224.32 239.29 224.32 231.68 270.48 205.03"/></g><g class="cls-1"><polyline class="cls-4" points="464.81 368.56 458.2 364.75 484.57 349.52"/><line class="cls-4" x1="471.38" y1="387.58" x2="484.57" y2="379.97"/><line class="cls-4" x1="405.46" y1="379.97" x2="418.64" y2="387.58"/><line class="cls-4" x1="471.38" y1="395.19" x2="471.38" y2="387.58"/><line class="cls-4" x1="445.01" y1="379.97" x2="445.01" y2="372.36"/><line class="cls-4" x1="418.64" y1="395.19" x2="418.64" y2="387.58"/><polyline class="cls-4" points="445.01 379.97 418.64 395.19 405.45 387.58 405.45 379.97 425.25 368.54"/><polyline class="cls-4" points="425.24 368.56 405.45 357.13 405.45 349.52 418.64 341.91 445.01 357.13 471.38 341.91 484.57 349.52 484.57 357.13 464.79 368.55"/><polyline class="cls-4" points="464.81 368.56 484.57 379.97 484.57 387.58 471.38 395.19 445.01 379.97"/><polyline class="cls-4" points="418.64 387.58 445.01 372.36 471.38 387.58"/><polyline class="cls-4" points="405.45 349.52 431.82 364.75 425.25 368.54"/></g><g class="cls-1"><polyline class="cls-4" points="78.81 616.56 72.2 612.75 98.57 597.52"/><line class="cls-4" x1="85.38" y1="635.58" x2="98.57" y2="627.97"/><line class="cls-4" x1="19.46" y1="627.97" x2="32.64" y2="635.58"/><line class="cls-4" x1="85.38" y1="643.19" x2="85.38" y2="635.58"/><line class="cls-4" x1="59.01" y1="627.97" x2="59.01" y2="620.36"/><line class="cls-4" x1="32.64" y1="643.19" x2="32.64" y2="635.58"/><polyline class="cls-4" points="59.01 627.97 32.64 643.2 19.45 635.58 19.45 627.97 39.24 616.54"/><polyline class="cls-4" points="39.24 616.56 19.45 605.13 19.45 597.52 32.64 589.91 59.01 605.13 85.38 589.91 98.57 597.52 98.57 605.13 78.79 616.55"/><polyline class="cls-4" points="78.81 616.56 98.57 627.97 98.57 635.58 85.38 643.2 59.01 627.97"/><polyline class="cls-4" points="32.64 635.58 59.01 620.36 85.38 635.58"/><polyline class="cls-4" points="19.45 597.52 45.83 612.75 39.24 616.54"/></g><g class="cls-1"><polyline class="cls-2" points="1464.76 524.73 1412.02 555.18 1418.63 558.99"/><line class="cls-2" x1="1451.58" y1="593.24" x2="1385.65" y2="555.18"/><line class="cls-2" x1="1517.5" y1="555.18" x2="1451.58" y2="593.24"/><line class="cls-2" x1="1451.58" y1="593.24" x2="1451.58" y2="600.85"/><polyline class="cls-2" points="1418.63 558.99 1451.58 578.01 1504.32 547.56 1517.5 555.18 1517.5 562.79 1451.58 600.85 1385.65 562.79 1385.65 555.18 1451.58 517.11 1464.76 524.73 1464.76 532.34 1418.62 558.98"/></g><g class="cls-1"><line class="cls-4" x1="1218.91" y1="118.22" x2="1218.91" y2="132.14"/><polyline class="cls-4" points="1274.85 110.61 1274.85 99.84 1237.56 99.84 1237.56 78.31 1218.91 78.31 1218.91 99.84 1181.62 99.84 1181.62 110.61"/><polyline class="cls-4" points="1237.56 118.22 1237.56 110.61 1274.85 110.61"/><line class="cls-4" x1="1237.56" y1="132.14" x2="1237.56" y2="118.22"/><line class="cls-4" x1="1218.91" y1="132.14" x2="1237.56" y2="132.14"/><polyline class="cls-4" points="1181.62 110.61 1218.91 110.61 1218.91 118.22"/><polyline class="cls-4" points="1218.91 118.22 1181.62 118.22 1181.62 110.61"/><polyline class="cls-4" points="1237.56 118.22 1274.85 118.22 1274.85 110.61"/><polyline class="cls-4" points="1237.56 132.14 1237.56 139.75 1218.91 139.75 1218.91 132.14"/></g><g class="cls-1"><line class="cls-3" x1="1280.98" y1="385.95" x2="1267.8" y2="393.56"/><polyline class="cls-3" points="1221.65 374.53 1228.24 370.73 1201.87 355.5"/><line class="cls-3" x1="1188.69" y1="408.79" x2="1175.5" y2="401.18"/><line class="cls-3" x1="1267.8" y1="393.56" x2="1267.8" y2="401.18"/><line class="cls-3" x1="1241.43" y1="378.34" x2="1241.43" y2="385.95"/><line class="cls-3" x1="1188.69" y1="408.79" x2="1188.69" y2="416.4"/><polyline class="cls-3" points="1221.66 374.54 1201.87 363.11 1201.87 355.5 1215.06 347.89 1280.98 385.95 1280.98 393.56 1267.8 401.18 1241.42 385.95"/><polyline class="cls-3" points="1241.42 385.95 1188.68 416.4 1175.5 408.79 1175.5 401.18 1221.65 374.53"/><polyline class="cls-3" points="1267.8 393.56 1241.42 378.34 1188.68 408.79"/></g><g class="cls-1"><line class="cls-2" x1="1445.48" y1="229.04" x2="1412.51" y2="210"/><line class="cls-2" x1="1412.51" y1="263.29" x2="1399.33" y2="255.68"/><line class="cls-2" x1="1478.44" y1="225.23" x2="1412.51" y2="263.29"/><line class="cls-2" x1="1359.77" y1="232.84" x2="1346.58" y2="225.23"/><line class="cls-2" x1="1412.51" y1="202.39" x2="1412.51" y2="210"/><line class="cls-2" x1="1412.51" y1="263.29" x2="1412.51" y2="270.9"/><line class="cls-2" x1="1359.77" y1="232.84" x2="1359.77" y2="240.45"/><polyline class="cls-2" points="1445.48 229.03 1452.07 225.23 1412.51 202.39 1359.77 232.84"/><polyline class="cls-2" points="1412.51 210 1359.77 240.45 1346.59 232.84 1346.59 225.23 1412.51 187.16 1478.44 225.23 1478.44 232.84 1412.51 270.9 1399.33 263.29 1399.33 255.68 1445.48 229.03"/></g><g class="cls-1"><polyline class="cls-4" points="1253.81 640.56 1247.2 636.75 1273.57 621.52"/><line class="cls-4" x1="1260.38" y1="659.58" x2="1273.57" y2="651.97"/><line class="cls-4" x1="1194.46" y1="651.97" x2="1207.64" y2="659.58"/><line class="cls-4" x1="1260.38" y1="667.19" x2="1260.38" y2="659.58"/><line class="cls-4" x1="1234.01" y1="651.97" x2="1234.01" y2="644.36"/><line class="cls-4" x1="1207.64" y1="667.19" x2="1207.64" y2="659.58"/><polyline class="cls-4" points="1234.01 651.97 1207.64 667.2 1194.45 659.58 1194.45 651.97 1214.24 640.54"/><polyline class="cls-4" points="1214.24 640.56 1194.45 629.13 1194.45 621.52 1207.64 613.91 1234.01 629.13 1260.38 613.91 1273.57 621.52 1273.57 629.13 1253.79 640.55"/><polyline class="cls-4" points="1253.81 640.56 1273.57 651.97 1273.57 659.58 1260.38 667.2 1234.01 651.97"/><polyline class="cls-4" points="1207.64 659.58 1234.01 644.36 1260.38 659.58"/><polyline class="cls-4" points="1194.45 621.52 1220.83 636.75 1214.24 640.54"/></g><g class="cls-1"><polyline class="cls-2" points="973.86 577.43 921.12 607.88 927.73 611.69"/><line class="cls-2" x1="960.68" y1="645.94" x2="894.75" y2="607.88"/><line class="cls-2" x1="1026.6" y1="607.88" x2="960.68" y2="645.94"/><line class="cls-2" x1="960.68" y1="645.94" x2="960.68" y2="653.55"/><polyline class="cls-2" points="927.73 611.69 960.68 630.71 1013.42 600.26 1026.6 607.88 1026.6 615.49 960.68 653.55 894.75 615.49 894.75 607.88 960.68 569.81 973.86 577.43 973.86 585.04 927.72 611.68"/></g><g class="cls-1"><line class="cls-3" x1="993.98" y1="82.18" x2="928.06" y2="44.11"/><line class="cls-3" x1="1007.17" y1="74.56" x2="993.98" y2="82.18"/><line class="cls-3" x1="993.98" y1="82.18" x2="993.98" y2="89.79"/><polyline class="cls-3" points="1033.54 28.89 980.8 59.34 987.39 63.15"/><polyline class="cls-3" points="987.39 63.15 1007.17 74.56 1007.17 82.18 993.98 89.79 928.06 51.73 928.06 44.11 941.24 36.5 967.61 51.73 1020.35 21.28 1033.54 28.89 1033.54 36.5 987.4 63.14"/></g><g class="cls-1"><line class="cls-4" x1="731.01" y1="83.92" x2="731.01" y2="97.84"/><polyline class="cls-4" points="786.95 76.31 786.95 65.54 749.66 65.54 749.66 44.01 731.01 44.01 731.01 65.54 693.72 65.54 693.72 76.31"/><polyline class="cls-4" points="749.66 83.92 749.66 76.31 786.95 76.31"/><line class="cls-4" x1="749.66" y1="97.84" x2="749.66" y2="83.92"/><line class="cls-4" x1="731.01" y1="97.84" x2="749.66" y2="97.84"/><polyline class="cls-4" points="693.72 76.31 731.01 76.31 731.01 83.92"/><polyline class="cls-4" points="731.01 83.92 693.72 83.92 693.72 76.31"/><polyline class="cls-4" points="749.66 83.92 786.95 83.92 786.95 76.31"/><polyline class="cls-4" points="749.66 97.84 749.66 105.45 731.01 105.45 731.01 97.84"/></g><g class="cls-1"><line class="cls-3" x1="828.08" y1="496.65" x2="814.9" y2="504.26"/><polyline class="cls-3" points="768.75 485.23 775.34 481.43 748.97 466.2"/><line class="cls-3" x1="735.79" y1="519.49" x2="722.6" y2="511.88"/><line class="cls-3" x1="814.9" y1="504.26" x2="814.9" y2="511.88"/><line class="cls-3" x1="788.53" y1="489.04" x2="788.53" y2="496.65"/><line class="cls-3" x1="735.79" y1="519.49" x2="735.79" y2="527.1"/><polyline class="cls-3" points="768.76 485.24 748.97 473.81 748.97 466.2 762.15 458.59 828.08 496.65 828.08 504.26 814.89 511.88 788.52 496.65"/><polyline class="cls-3" points="788.52 496.65 735.78 527.1 722.6 519.49 722.6 511.88 768.75 485.23"/><polyline class="cls-3" points="814.89 504.26 788.52 489.04 735.78 519.49"/></g><g class="cls-1"><line class="cls-2" x1="720.58" y1="293.74" x2="687.61" y2="274.7"/><line class="cls-2" x1="687.61" y1="327.99" x2="674.43" y2="320.38"/><line class="cls-2" x1="753.54" y1="289.93" x2="687.61" y2="327.99"/><line class="cls-2" x1="634.87" y1="297.54" x2="621.68" y2="289.93"/><line class="cls-2" x1="687.61" y1="267.09" x2="687.61" y2="274.7"/><line class="cls-2" x1="687.61" y1="327.99" x2="687.61" y2="335.6"/><line class="cls-2" x1="634.87" y1="297.54" x2="634.87" y2="305.15"/><polyline class="cls-2" points="720.58 293.73 727.16 289.93 687.61 267.09 634.87 297.54"/><polyline class="cls-2" points="687.61 274.7 634.87 305.15 621.68 297.54 621.68 289.93 687.61 251.87 753.54 289.93 753.54 297.54 687.61 335.6 674.42 327.99 674.42 320.38 720.58 293.73"/></g><g class="cls-1"><polyline class="cls-4" points="1033.91 364.26 1027.3 360.44 1053.67 345.22"/><line class="cls-4" x1="1040.48" y1="383.28" x2="1053.67" y2="375.67"/><line class="cls-4" x1="974.56" y1="375.67" x2="987.74" y2="383.28"/><line class="cls-4" x1="1040.48" y1="390.89" x2="1040.48" y2="383.28"/><line class="cls-4" x1="1014.11" y1="375.67" x2="1014.11" y2="368.06"/><line class="cls-4" x1="987.74" y1="390.89" x2="987.74" y2="383.28"/><polyline class="cls-4" points="1014.11 375.67 987.74 390.89 974.55 383.28 974.55 375.67 994.35 364.24"/><polyline class="cls-4" points="994.34 364.26 974.55 352.83 974.55 345.22 987.74 337.61 1014.11 352.83 1040.48 337.61 1053.67 345.22 1053.67 352.83 1033.89 364.25"/><polyline class="cls-4" points="1033.91 364.26 1053.67 375.67 1053.67 383.28 1040.48 390.89 1014.11 375.67"/><polyline class="cls-4" points="987.74 383.28 1014.11 368.06 1040.48 383.28"/><polyline class="cls-4" points="974.55 345.22 1000.92 360.44 994.35 364.24"/></g></svg>