<svg id="Layer_1" data-name="Layer 1" xmlns="http://www.w3.org/2000/svg" viewBox="0 0 750 1334"><defs><style>.cls-1{opacity:0.5;}.cls-2,.cls-3,.cls-4{fill:none;}.cls-2{stroke:#4bc6ec;}.cls-3{stroke:#ed3540;}.cls-4{stroke:#42b54a;}</style></defs><g class="cls-1"><line class="cls-2" x1="67.76" y1="391.92" x2="1.83" y2="353.86"/><line class="cls-2" x1="80.94" y1="384.31" x2="67.76" y2="391.92"/><line class="cls-2" x1="67.76" y1="391.92" x2="67.76" y2="399.54"/><polyline class="cls-2" points="107.31 338.64 54.57 369.09 61.16 372.89"/><polyline class="cls-2" points="61.16 372.89 80.94 384.31 80.94 391.92 67.76 399.54 1.83 361.48 1.83 353.86 15.02 346.25 41.39 361.48 94.13 331.02 107.31 338.64 107.31 346.25 61.17 372.89"/></g><g class="cls-1"><line class="cls-2" x1="153.16" y1="995.42" x2="87.23" y2="957.36"/><line class="cls-2" x1="166.34" y1="987.81" x2="153.16" y2="995.42"/><line class="cls-2" x1="153.16" y1="995.42" x2="153.16" y2="1003.04"/><polyline class="cls-2" points="192.71 942.14 139.97 972.59 146.56 976.39"/><polyline class="cls-2" points="146.56 976.39 166.34 987.81 166.34 995.42 153.16 1003.04 87.23 964.98 87.23 957.36 100.42 949.75 126.79 964.98 179.53 934.52 192.71 942.14 192.71 949.75 146.57 976.39"/></g><g class="cls-1"><polyline class="cls-3" points="80.68 699.01 74.07 695.19 100.44 679.97"/><line class="cls-3" x1="87.25" y1="718.03" x2="100.44" y2="710.42"/><line class="cls-3" x1="21.33" y1="710.42" x2="34.51" y2="718.03"/><line class="cls-3" x1="87.25" y1="725.64" x2="87.25" y2="718.03"/><line class="cls-3" x1="60.88" y1="710.42" x2="60.88" y2="702.81"/><line class="cls-3" x1="34.51" y1="725.64" x2="34.51" y2="718.03"/><polyline class="cls-3" points="60.88 710.42 34.51 725.64 21.33 718.03 21.33 710.42 41.12 698.99"/><polyline class="cls-3" points="41.12 699 21.33 687.58 21.33 679.97 34.51 672.36 60.88 687.58 87.25 672.36 100.44 679.97 100.44 687.58 80.67 699"/><polyline class="cls-3" points="80.68 699.01 100.44 710.42 100.44 718.03 87.25 725.64 60.88 710.42"/><polyline class="cls-3" points="34.51 718.03 60.88 702.8 87.25 718.03"/><polyline class="cls-3" points="21.33 679.97 47.7 695.19 41.12 698.99"/></g><g class="cls-1"><polyline class="cls-4" points="589.74 907.88 537 938.32 543.6 942.14"/><line class="cls-4" x1="576.55" y1="976.39" x2="510.63" y2="938.32"/><line class="cls-4" x1="642.48" y1="938.32" x2="576.55" y2="976.39"/><line class="cls-4" x1="576.55" y1="976.39" x2="576.55" y2="984"/><polyline class="cls-4" points="543.6 942.14 576.55 961.16 629.29 930.71 642.48 938.32 642.48 945.94 576.55 984 510.63 945.94 510.63 938.32 576.55 900.26 589.74 907.88 589.74 915.49 543.6 942.13"/></g><g class="cls-1"><line class="cls-2" x1="609.86" y1="412.62" x2="543.93" y2="374.56"/><line class="cls-2" x1="623.04" y1="405.01" x2="609.86" y2="412.62"/><line class="cls-2" x1="609.86" y1="412.62" x2="609.86" y2="420.24"/><polyline class="cls-2" points="649.41 359.34 596.67 389.79 603.26 393.59"/><polyline class="cls-2" points="603.26 393.59 623.04 405.01 623.04 412.62 609.86 420.24 543.93 382.18 543.93 374.56 557.12 366.95 583.49 382.18 636.23 351.73 649.41 359.34 649.41 366.95 603.27 393.59"/></g><g class="cls-1"><line class="cls-3" x1="346.88" y1="414.37" x2="346.88" y2="428.29"/><polyline class="cls-3" points="402.82 406.76 402.82 395.99 365.53 395.99 365.53 374.46 346.88 374.46 346.88 395.99 309.59 395.99 309.59 406.76"/><polyline class="cls-3" points="365.53 414.37 365.53 406.76 402.82 406.76"/><line class="cls-3" x1="365.53" y1="428.29" x2="365.53" y2="414.37"/><line class="cls-3" x1="346.88" y1="428.29" x2="365.53" y2="428.29"/><polyline class="cls-3" points="309.59 406.76 346.88 406.76 346.88 414.37"/><polyline class="cls-3" points="346.88 414.37 309.59 414.37 309.59 406.76"/><polyline class="cls-3" points="365.53 414.37 402.82 414.37 402.82 406.76"/><polyline class="cls-3" points="365.53 428.29 365.53 435.9 346.88 435.9 346.88 428.29"/></g><g class="cls-1"><line class="cls-2" x1="443.95" y1="827.1" x2="430.77" y2="834.71"/><polyline class="cls-2" points="384.62 815.68 391.21 811.88 364.84 796.65"/><line class="cls-2" x1="351.66" y1="849.94" x2="338.47" y2="842.32"/><line class="cls-2" x1="430.77" y1="834.71" x2="430.77" y2="842.32"/><line class="cls-2" x1="404.4" y1="819.49" x2="404.4" y2="827.1"/><line class="cls-2" x1="351.66" y1="849.94" x2="351.66" y2="857.55"/><polyline class="cls-2" points="384.63 815.69 364.84 804.26 364.84 796.65 378.03 789.04 443.95 827.1 443.95 834.71 430.77 842.32 404.4 827.1"/><polyline class="cls-2" points="404.4 827.1 351.66 857.55 338.47 849.94 338.47 842.32 384.62 815.68"/><polyline class="cls-2" points="430.77 834.71 404.4 819.49 351.66 849.94"/></g><g class="cls-1"><line class="cls-4" x1="336.46" y1="624.19" x2="303.48" y2="605.15"/><line class="cls-4" x1="303.48" y1="658.44" x2="290.3" y2="650.82"/><line class="cls-4" x1="369.41" y1="620.37" x2="303.48" y2="658.44"/><line class="cls-4" x1="250.74" y1="627.99" x2="237.56" y2="620.37"/><line class="cls-4" x1="303.48" y1="597.54" x2="303.48" y2="605.15"/><line class="cls-4" x1="303.48" y1="658.44" x2="303.48" y2="666.05"/><line class="cls-4" x1="250.74" y1="627.99" x2="250.74" y2="635.6"/><polyline class="cls-4" points="336.45 624.18 343.04 620.38 303.48 597.54 250.74 627.99"/><polyline class="cls-4" points="303.48 605.15 250.74 635.6 237.56 627.99 237.56 620.38 303.48 582.31 369.41 620.38 369.41 627.99 303.48 666.05 290.3 658.44 290.3 650.83 336.45 624.18"/></g><g class="cls-1"><polyline class="cls-3" points="649.78 694.71 643.17 690.89 669.54 675.67"/><line class="cls-3" x1="656.35" y1="713.73" x2="669.54" y2="706.12"/><line class="cls-3" x1="590.43" y1="706.12" x2="603.61" y2="713.73"/><line class="cls-3" x1="656.35" y1="721.34" x2="656.35" y2="713.73"/><line class="cls-3" x1="629.98" y1="706.12" x2="629.98" y2="698.51"/><line class="cls-3" x1="603.61" y1="721.34" x2="603.61" y2="713.73"/><polyline class="cls-3" points="629.98 706.12 603.61 721.34 590.43 713.73 590.43 706.12 610.22 694.69"/><polyline class="cls-3" points="610.22 694.7 590.43 683.28 590.43 675.67 603.61 668.06 629.98 683.28 656.35 668.06 669.54 675.67 669.54 683.28 649.77 694.7"/><polyline class="cls-3" points="649.78 694.71 669.54 706.12 669.54 713.73 656.35 721.34 629.98 706.12"/><polyline class="cls-3" points="603.61 713.73 629.98 698.5 656.35 713.73"/><polyline class="cls-3" points="590.43 675.67 616.8 690.89 610.22 694.69"/></g><g class="cls-1"><line class="cls-2" x1="29.76" y1="1190.92" x2="-36.17" y2="1152.86"/><line class="cls-2" x1="42.94" y1="1183.31" x2="29.76" y2="1190.92"/><line class="cls-2" x1="29.76" y1="1190.92" x2="29.76" y2="1198.54"/><polyline class="cls-2" points="69.31 1137.64 16.57 1168.09 23.16 1171.89"/><polyline class="cls-2" points="23.16 1171.89 42.94 1183.31 42.94 1190.92 29.76 1198.54 -36.17 1160.47 -36.17 1152.86 -22.98 1145.25 3.39 1160.47 56.13 1130.03 69.31 1137.64 69.31 1145.25 23.18 1171.89"/></g><g class="cls-1"><line class="cls-2" x1="571.86" y1="1211.62" x2="505.93" y2="1173.56"/><line class="cls-2" x1="585.04" y1="1204.01" x2="571.86" y2="1211.62"/><line class="cls-2" x1="571.86" y1="1211.62" x2="571.86" y2="1219.24"/><polyline class="cls-2" points="611.41 1158.34 558.67 1188.79 565.26 1192.59"/><polyline class="cls-2" points="565.26 1192.59 585.04 1204.01 585.04 1211.62 571.86 1219.24 505.93 1181.17 505.93 1173.56 519.12 1165.95 545.49 1181.17 598.23 1150.72 611.41 1158.34 611.41 1165.95 565.27 1192.59"/></g><g class="cls-1"><line class="cls-3" x1="308.88" y1="1213.37" x2="308.88" y2="1227.29"/><polyline class="cls-3" points="364.82 1205.76 364.82 1194.99 327.53 1194.99 327.53 1173.46 308.88 1173.46 308.88 1194.99 271.59 1194.99 271.59 1205.76"/><polyline class="cls-3" points="327.53 1213.37 327.53 1205.76 364.82 1205.76"/><line class="cls-3" x1="327.53" y1="1227.29" x2="327.53" y2="1213.37"/><line class="cls-3" x1="308.88" y1="1227.29" x2="327.53" y2="1227.29"/><polyline class="cls-3" points="271.59 1205.76 308.88 1205.76 308.88 1213.37"/><polyline class="cls-3" points="308.88 1213.37 271.59 1213.37 271.59 1205.76"/><polyline class="cls-3" points="327.53 1213.37 364.82 1213.37 364.82 1205.76"/><polyline class="cls-3" points="327.53 1227.29 327.53 1234.9 308.88 1234.9 308.88 1227.29"/></g><g class="cls-1"><line class="cls-2" x1="144.16" y1="145.42" x2="78.23" y2="107.36"/><line class="cls-2" x1="157.34" y1="137.81" x2="144.16" y2="145.42"/><line class="cls-2" x1="144.16" y1="145.42" x2="144.16" y2="153.04"/><polyline class="cls-2" points="183.71 92.14 130.97 122.59 137.56 126.39"/><polyline class="cls-2" points="137.56 126.39 157.34 137.81 157.34 145.42 144.16 153.04 78.23 114.97 78.23 107.36 91.42 99.75 117.79 114.97 170.53 84.53 183.71 92.14 183.71 99.75 137.57 126.39"/></g><g class="cls-1"><polyline class="cls-4" points="580.74 57.88 528 88.32 534.6 92.14"/><line class="cls-4" x1="567.55" y1="126.39" x2="501.63" y2="88.32"/><line class="cls-4" x1="633.48" y1="88.32" x2="567.55" y2="126.39"/><line class="cls-4" x1="567.55" y1="126.39" x2="567.55" y2="134"/><polyline class="cls-4" points="534.6 92.14 567.55 111.16 620.29 80.71 633.48 88.32 633.48 95.94 567.55 134 501.63 95.94 501.63 88.32 567.55 50.26 580.74 57.88 580.74 65.49 534.6 92.13"/></g><g class="cls-1"><line class="cls-2" x1="342.66" y1="-0.06" x2="329.47" y2="-7.68"/><line class="cls-2" x1="342.66" y1="-0.06" x2="342.66" y2="7.55"/><polyline class="cls-2" points="395.4 -22.9 342.66 7.55 329.47 -0.06 329.47 -7.68 375.62 -34.32"/><polyline class="cls-2" points="421.77 -15.29 395.4 -30.51 342.66 -0.06"/></g></svg>